# Blender v2.82 (sub 7) OBJ File: 'Anti pin.blend'
# www.blender.org
mtllib Anti pin.mtl
g AntiPin
v 0.556463 1.000000 -0.556463
v 1.000000 -1.000000 -1.000000
v 0.556463 1.000000 0.556463
v 1.000000 -1.000000 1.000000
v -0.556463 1.000000 -0.556463
v -1.000000 -1.000000 -1.000000
v -0.556463 1.000000 0.556463
v -1.000000 -1.000000 1.000000
v 1.000000 1.000000 1.000000
v -1.000000 1.000000 1.000000
v 1.000000 1.000000 -1.000000
v -1.000000 1.000000 -1.000000
v 0.545457 -0.750000 -0.556561
v 0.545457 -0.750000 0.591241
v -0.559584 -0.750000 -0.571207
v -0.561208 -0.750000 0.585548
vt 0.125000 0.500000
vt 0.375000 0.500000
vt 0.375000 0.750000
vt 0.125000 0.750000
vt 0.680442 0.694558
vt 0.819558 0.694558
vt 0.875000 0.750000
vt 0.625000 0.750000
vt 0.680442 0.555442
vt 0.625000 0.500000
vt 0.819558 0.555442
vt 0.875000 0.500000
vt 0.000000 0.000000
vt 0.000000 0.000000
vt 0.000000 0.000000
vt 0.000000 0.000000
vt 0.000000 0.000000
vt 0.000000 0.000000
vt 0.000000 0.000000
vt 0.000000 0.000000
vn 0.0000 -1.0000 0.0000
vn 0.0000 1.0000 0.0000
vn 0.0000 0.0000 -1.0000
vn 1.0000 0.0000 0.0000
vn -1.0000 0.0000 0.0000
vn 0.0000 0.0000 1.0000
vn 1.0000 -0.0063 0.0000
vn -0.0026 0.0183 0.9998
vn 0.0066 0.0042 -1.0000
vn -1.0000 0.0022 -0.0007
usemtl Material.001
s off
f 6/1/1 2/2/1 4/3/1 8/4/1
f 3/5/2 7/6/2 10/7/2 9/8/2
f 1/9/2 3/5/2 9/8/2 11/10/2
f 7/6/2 5/11/2 12/12/2 10/7/2
f 5/11/2 1/9/2 11/10/2 12/12/2
f 2/2/3 6/1/3 12/12/3 11/10/3
f 2/2/4 11/10/4 9/8/4 4/3/4
f 6/1/5 8/4/5 10/7/5 12/12/5
f 9/8/6 10/7/6 8/4/6 4/3/6
f 13/13/2 15/14/2 16/15/2 14/16/2
f 14/16/7 13/13/7 1/9/7 3/5/7
f 14/16/8 3/17/8 7/18/8 16/15/8
f 15/14/9 5/19/9 1/20/9 13/13/9
f 16/15/10 7/18/10 5/19/10 15/14/10
